<svg xmlns="http://www.w3.org/2000/svg" width="980" height="620" viewBox="0 0 980 620">
<rect width="100%" height="100%" fill="#fffaf0" />
<text x="490.0" y="28" font-size="22" text-anchor="middle" fill="#1d1d1d">Empirical CDF Scatter vs ML Approximation Line</text>
<text x="490.0" y="48" font-size="13" text-anchor="middle" fill="#5f584d">Scatter points show actual empirical CDF, red line shows ML approximation</text>
<g><line x1="70" y1="550.00" x2="940" y2="550.00" stroke="#e6e1d7" stroke-width="1" /><text x="60" y="555.00" font-size="12" text-anchor="end">0.0</text></g>
<g><line x1="70" y1="427.50" x2="940" y2="427.50" stroke="#e6e1d7" stroke-width="1" /><text x="60" y="432.50" font-size="12" text-anchor="end">0.2</text></g>
<g><line x1="70" y1="305.00" x2="940" y2="305.00" stroke="#e6e1d7" stroke-width="1" /><text x="60" y="310.00" font-size="12" text-anchor="end">0.5</text></g>
<g><line x1="70" y1="182.50" x2="940" y2="182.50" stroke="#e6e1d7" stroke-width="1" /><text x="60" y="187.50" font-size="12" text-anchor="end">0.8</text></g>
<g><line x1="70" y1="60.00" x2="940" y2="60.00" stroke="#e6e1d7" stroke-width="1" /><text x="60" y="65.00" font-size="12" text-anchor="end">1.0</text></g>
<g><line x1="70.00" y1="60" x2="70.00" y2="550" stroke="#f0ece3" stroke-width="1" /><text x="70.00" y="600" font-size="12" text-anchor="middle">0</text></g>
<g><line x1="287.50" y1="60" x2="287.50" y2="550" stroke="#f0ece3" stroke-width="1" /><text x="287.50" y="600" font-size="12" text-anchor="middle">25</text></g>
<g><line x1="505.00" y1="60" x2="505.00" y2="550" stroke="#f0ece3" stroke-width="1" /><text x="505.00" y="600" font-size="12" text-anchor="middle">50</text></g>
<g><line x1="722.50" y1="60" x2="722.50" y2="550" stroke="#f0ece3" stroke-width="1" /><text x="722.50" y="600" font-size="12" text-anchor="middle">75</text></g>
<g><line x1="940.00" y1="60" x2="940.00" y2="550" stroke="#f0ece3" stroke-width="1" /><text x="940.00" y="600" font-size="12" text-anchor="middle">100</text></g>
<line x1="70" y1="60" x2="70" y2="550" stroke="#444" stroke-width="1.5" />
<line x1="70" y1="550" x2="940" y2="550" stroke="#444" stroke-width="1.5" />
<circle cx="70.00" cy="533.05" r="3.2" fill="#1f77b4" fill-opacity="0.75" />
<circle cx="78.70" cy="518.64" r="3.2" fill="#1f77b4" fill-opacity="0.75" />
<circle cx="87.40" cy="501.59" r="3.2" fill="#1f77b4" fill-opacity="0.75" />
<circle cx="96.10" cy="474.93" r="3.2" fill="#1f77b4" fill-opacity="0.75" />
<circle cx="104.80" cy="445.92" r="3.2" fill="#1f77b4" fill-opacity="0.75" />
<circle cx="113.50" cy="413.00" r="3.2" fill="#1f77b4" fill-opacity="0.75" />
<circle cx="122.20" cy="383.89" r="3.2" fill="#1f77b4" fill-opacity="0.75" />
<circle cx="130.90" cy="359.68" r="3.2" fill="#1f77b4" fill-opacity="0.75" />
<circle cx="139.60" cy="340.48" r="3.2" fill="#1f77b4" fill-opacity="0.75" />
<circle cx="148.30" cy="326.27" r="3.2" fill="#1f77b4" fill-opacity="0.75" />
<circle cx="157.00" cy="317.94" r="3.2" fill="#1f77b4" fill-opacity="0.75" />
<circle cx="165.70" cy="313.33" r="3.2" fill="#1f77b4" fill-opacity="0.75" />
<circle cx="174.40" cy="309.31" r="3.2" fill="#1f77b4" fill-opacity="0.75" />
<circle cx="183.10" cy="307.74" r="3.2" fill="#1f77b4" fill-opacity="0.75" />
<circle cx="191.80" cy="307.55" r="3.2" fill="#1f77b4" fill-opacity="0.75" />
<circle cx="200.50" cy="307.45" r="3.2" fill="#1f77b4" fill-opacity="0.75" />
<circle cx="209.20" cy="307.25" r="3.2" fill="#1f77b4" fill-opacity="0.75" />
<circle cx="217.90" cy="307.25" r="3.2" fill="#1f77b4" fill-opacity="0.75" />
<circle cx="226.60" cy="307.25" r="3.2" fill="#1f77b4" fill-opacity="0.75" />
<circle cx="235.30" cy="307.25" r="3.2" fill="#1f77b4" fill-opacity="0.75" />
<circle cx="244.00" cy="307.25" r="3.2" fill="#1f77b4" fill-opacity="0.75" />
<circle cx="252.70" cy="307.25" r="3.2" fill="#1f77b4" fill-opacity="0.75" />
<circle cx="261.40" cy="307.25" r="3.2" fill="#1f77b4" fill-opacity="0.75" />
<circle cx="270.10" cy="307.25" r="3.2" fill="#1f77b4" fill-opacity="0.75" />
<circle cx="278.80" cy="307.25" r="3.2" fill="#1f77b4" fill-opacity="0.75" />
<circle cx="287.50" cy="307.25" r="3.2" fill="#1f77b4" fill-opacity="0.75" />
<circle cx="296.20" cy="307.25" r="3.2" fill="#1f77b4" fill-opacity="0.75" />
<circle cx="304.90" cy="307.25" r="3.2" fill="#1f77b4" fill-opacity="0.75" />
<circle cx="313.60" cy="307.25" r="3.2" fill="#1f77b4" fill-opacity="0.75" />
<circle cx="322.30" cy="307.25" r="3.2" fill="#1f77b4" fill-opacity="0.75" />
<circle cx="331.00" cy="307.25" r="3.2" fill="#1f77b4" fill-opacity="0.75" />
<circle cx="339.70" cy="307.25" r="3.2" fill="#1f77b4" fill-opacity="0.75" />
<circle cx="348.40" cy="307.25" r="3.2" fill="#1f77b4" fill-opacity="0.75" />
<circle cx="357.10" cy="307.25" r="3.2" fill="#1f77b4" fill-opacity="0.75" />
<circle cx="365.80" cy="307.25" r="3.2" fill="#1f77b4" fill-opacity="0.75" />
<circle cx="374.50" cy="307.25" r="3.2" fill="#1f77b4" fill-opacity="0.75" />
<circle cx="383.20" cy="307.25" r="3.2" fill="#1f77b4" fill-opacity="0.75" />
<circle cx="391.90" cy="307.25" r="3.2" fill="#1f77b4" fill-opacity="0.75" />
<circle cx="400.60" cy="307.25" r="3.2" fill="#1f77b4" fill-opacity="0.75" />
<circle cx="409.30" cy="307.25" r="3.2" fill="#1f77b4" fill-opacity="0.75" />
<circle cx="418.00" cy="307.25" r="3.2" fill="#1f77b4" fill-opacity="0.75" />
<circle cx="426.70" cy="307.25" r="3.2" fill="#1f77b4" fill-opacity="0.75" />
<circle cx="435.40" cy="307.25" r="3.2" fill="#1f77b4" fill-opacity="0.75" />
<circle cx="444.10" cy="307.25" r="3.2" fill="#1f77b4" fill-opacity="0.75" />
<circle cx="452.80" cy="307.25" r="3.2" fill="#1f77b4" fill-opacity="0.75" />
<circle cx="461.50" cy="307.25" r="3.2" fill="#1f77b4" fill-opacity="0.75" />
<circle cx="470.20" cy="307.25" r="3.2" fill="#1f77b4" fill-opacity="0.75" />
<circle cx="478.90" cy="307.25" r="3.2" fill="#1f77b4" fill-opacity="0.75" />
<circle cx="487.60" cy="307.25" r="3.2" fill="#1f77b4" fill-opacity="0.75" />
<circle cx="496.30" cy="307.25" r="3.2" fill="#1f77b4" fill-opacity="0.75" />
<circle cx="505.00" cy="307.25" r="3.2" fill="#1f77b4" fill-opacity="0.75" />
<circle cx="513.70" cy="307.25" r="3.2" fill="#1f77b4" fill-opacity="0.75" />
<circle cx="522.40" cy="307.25" r="3.2" fill="#1f77b4" fill-opacity="0.75" />
<circle cx="531.10" cy="307.25" r="3.2" fill="#1f77b4" fill-opacity="0.75" />
<circle cx="539.80" cy="307.25" r="3.2" fill="#1f77b4" fill-opacity="0.75" />
<circle cx="548.50" cy="307.25" r="3.2" fill="#1f77b4" fill-opacity="0.75" />
<circle cx="557.20" cy="307.25" r="3.2" fill="#1f77b4" fill-opacity="0.75" />
<circle cx="565.90" cy="307.25" r="3.2" fill="#1f77b4" fill-opacity="0.75" />
<circle cx="574.60" cy="307.25" r="3.2" fill="#1f77b4" fill-opacity="0.75" />
<circle cx="583.30" cy="307.25" r="3.2" fill="#1f77b4" fill-opacity="0.75" />
<circle cx="592.00" cy="307.16" r="3.2" fill="#1f77b4" fill-opacity="0.75" />
<circle cx="600.70" cy="307.06" r="3.2" fill="#1f77b4" fill-opacity="0.75" />
<circle cx="609.40" cy="306.76" r="3.2" fill="#1f77b4" fill-opacity="0.75" />
<circle cx="618.10" cy="306.18" r="3.2" fill="#1f77b4" fill-opacity="0.75" />
<circle cx="626.80" cy="304.22" r="3.2" fill="#1f77b4" fill-opacity="0.75" />
<circle cx="635.50" cy="301.18" r="3.2" fill="#1f77b4" fill-opacity="0.75" />
<circle cx="644.20" cy="294.91" r="3.2" fill="#1f77b4" fill-opacity="0.75" />
<circle cx="652.90" cy="285.20" r="3.2" fill="#1f77b4" fill-opacity="0.75" />
<circle cx="661.60" cy="268.64" r="3.2" fill="#1f77b4" fill-opacity="0.75" />
<circle cx="670.30" cy="248.36" r="3.2" fill="#1f77b4" fill-opacity="0.75" />
<circle cx="679.00" cy="222.78" r="3.2" fill="#1f77b4" fill-opacity="0.75" />
<circle cx="687.70" cy="191.03" r="3.2" fill="#1f77b4" fill-opacity="0.75" />
<circle cx="696.40" cy="158.59" r="3.2" fill="#1f77b4" fill-opacity="0.75" />
<circle cx="705.10" cy="128.60" r="3.2" fill="#1f77b4" fill-opacity="0.75" />
<circle cx="713.80" cy="104.00" r="3.2" fill="#1f77b4" fill-opacity="0.75" />
<circle cx="722.50" cy="86.36" r="3.2" fill="#1f77b4" fill-opacity="0.75" />
<circle cx="731.20" cy="74.80" r="3.2" fill="#1f77b4" fill-opacity="0.75" />
<circle cx="739.90" cy="68.23" r="3.2" fill="#1f77b4" fill-opacity="0.75" />
<circle cx="748.60" cy="64.31" r="3.2" fill="#1f77b4" fill-opacity="0.75" />
<circle cx="757.30" cy="61.86" r="3.2" fill="#1f77b4" fill-opacity="0.75" />
<circle cx="766.00" cy="60.69" r="3.2" fill="#1f77b4" fill-opacity="0.75" />
<circle cx="774.70" cy="60.20" r="3.2" fill="#1f77b4" fill-opacity="0.75" />
<circle cx="783.40" cy="60.10" r="3.2" fill="#1f77b4" fill-opacity="0.75" />
<circle cx="792.10" cy="60.00" r="3.2" fill="#1f77b4" fill-opacity="0.75" />
<circle cx="800.80" cy="60.00" r="3.2" fill="#1f77b4" fill-opacity="0.75" />
<circle cx="809.50" cy="60.00" r="3.2" fill="#1f77b4" fill-opacity="0.75" />
<circle cx="818.20" cy="60.00" r="3.2" fill="#1f77b4" fill-opacity="0.75" />
<circle cx="826.90" cy="60.00" r="3.2" fill="#1f77b4" fill-opacity="0.75" />
<circle cx="835.60" cy="60.00" r="3.2" fill="#1f77b4" fill-opacity="0.75" />
<circle cx="844.30" cy="60.00" r="3.2" fill="#1f77b4" fill-opacity="0.75" />
<circle cx="853.00" cy="60.00" r="3.2" fill="#1f77b4" fill-opacity="0.75" />
<circle cx="861.70" cy="60.00" r="3.2" fill="#1f77b4" fill-opacity="0.75" />
<circle cx="870.40" cy="60.00" r="3.2" fill="#1f77b4" fill-opacity="0.75" />
<circle cx="879.10" cy="60.00" r="3.2" fill="#1f77b4" fill-opacity="0.75" />
<circle cx="887.80" cy="60.00" r="3.2" fill="#1f77b4" fill-opacity="0.75" />
<circle cx="896.50" cy="60.00" r="3.2" fill="#1f77b4" fill-opacity="0.75" />
<circle cx="905.20" cy="60.00" r="3.2" fill="#1f77b4" fill-opacity="0.75" />
<circle cx="913.90" cy="60.00" r="3.2" fill="#1f77b4" fill-opacity="0.75" />
<circle cx="922.60" cy="60.00" r="3.2" fill="#1f77b4" fill-opacity="0.75" />
<circle cx="931.30" cy="60.00" r="3.2" fill="#1f77b4" fill-opacity="0.75" />
<circle cx="940.00" cy="60.00" r="3.2" fill="#1f77b4" fill-opacity="0.75" />
<polyline fill="none" stroke="#d62728" stroke-width="3" points="70.00,497.39 78.70,482.16 87.40,467.29 96.10,452.81 104.80,438.73 113.50,425.09 122.20,411.91 130.90,399.21 139.60,387.04 148.30,375.40 157.00,364.32 165.70,353.84 174.40,343.97 183.10,334.74 191.80,326.16 200.50,318.26 209.20,311.04 217.90,304.53 226.60,298.74 235.30,293.66 244.00,289.31 252.70,285.68 261.40,282.78 270.10,280.58 278.80,279.07 287.50,278.24 296.20,278.07 304.90,278.51 313.60,279.54 322.30,281.12 331.00,283.19 339.70,285.73 348.40,288.65 357.10,291.92 365.80,295.47 374.50,299.24 383.20,303.16 391.90,307.16 400.60,311.17 409.30,315.14 418.00,318.98 426.70,322.64 435.40,326.04 444.10,329.14 452.80,331.86 461.50,334.16 470.20,335.99 478.90,337.30 487.60,338.04 496.30,338.19 505.00,337.71 513.70,336.58 522.40,334.78 531.10,332.29 539.80,329.10 548.50,325.21 557.20,320.62 565.90,315.32 574.60,309.33 583.30,302.65 592.00,295.30 600.70,287.30 609.40,278.66 618.10,269.40 626.80,259.55 635.50,249.13 644.20,238.16 652.90,226.67 661.60,214.69 670.30,202.24 679.00,189.35 687.70,176.05 696.40,162.36 705.10,148.31 713.80,133.92 722.50,119.23 731.20,104.25 739.90,89.02 748.60,73.54 757.30,60.00 766.00,60.00 774.70,60.00 783.40,60.00 792.10,60.00 800.80,60.00 809.50,60.00 818.20,60.00 826.90,60.00 835.60,60.00 844.30,60.00 853.00,60.00 861.70,60.00 870.40,60.00 879.10,60.00 887.80,60.00 896.50,60.00 905.20,60.00 913.90,60.00 922.60,60.00 931.30,60.00 940.00,60.00" />
<rect x="700" y="72" width="230" height="130" fill="#ffffff" stroke="#d9d3c7" rx="10" />
<text x="725" y="96" font-size="15" font-weight="bold" fill="#1d1d1d">Data Schema</text>
<text x="725" y="130" font-size="13" fill="#1d1d1d">mean: 38.7166</text>
<text x="725" y="148" font-size="13" fill="#1d1d1d">variance: 1117.0903</text>
<text x="725" y="166" font-size="13" fill="#1d1d1d">min: 0</text>
<text x="725" y="184" font-size="13" fill="#1d1d1d">max: 83</text>
<text x="725" y="202" font-size="13" fill="#1d1d1d">size: 5000</text>
<rect x="700" y="220" width="230" height="76" fill="#ffffff" stroke="#d9d3c7" rx="10" />
<circle cx="732" cy="246" r="4" fill="#1f77b4" fill-opacity="0.75" />
<text x="750" y="250" font-size="13" fill="#1d1d1d">Actual empirical CDF scatter</text>
<line x1="728" y1="272" x2="768" y2="272" stroke="#d62728" stroke-width="3" />
<text x="778" y="276" font-size="13" fill="#1d1d1d">ML approximation line</text>
<text x="505.0" y="590" font-size="14" text-anchor="middle" fill="#1d1d1d">x value</text>
<text x="24" y="305.0" font-size="14" text-anchor="middle" fill="#1d1d1d" transform="rotate(-90 24 305.0)">CDF</text>
</svg>
