<svg xmlns="http://www.w3.org/2000/svg" width="980" height="620" viewBox="0 0 980 620">
<rect width="100%" height="100%" fill="#fffaf0" />
<text x="490.0" y="28" font-size="22" text-anchor="middle" fill="#1d1d1d">Empirical CDF Scatter vs ML Approximation Line</text>
<text x="490.0" y="48" font-size="13" text-anchor="middle" fill="#5f584d">Scatter points show actual empirical CDF, red line shows ML approximation</text>
<g><line x1="70" y1="550.00" x2="940" y2="550.00" stroke="#e6e1d7" stroke-width="1" /><text x="60" y="555.00" font-size="12" text-anchor="end">0.0</text></g>
<g><line x1="70" y1="427.50" x2="940" y2="427.50" stroke="#e6e1d7" stroke-width="1" /><text x="60" y="432.50" font-size="12" text-anchor="end">0.2</text></g>
<g><line x1="70" y1="305.00" x2="940" y2="305.00" stroke="#e6e1d7" stroke-width="1" /><text x="60" y="310.00" font-size="12" text-anchor="end">0.5</text></g>
<g><line x1="70" y1="182.50" x2="940" y2="182.50" stroke="#e6e1d7" stroke-width="1" /><text x="60" y="187.50" font-size="12" text-anchor="end">0.8</text></g>
<g><line x1="70" y1="60.00" x2="940" y2="60.00" stroke="#e6e1d7" stroke-width="1" /><text x="60" y="65.00" font-size="12" text-anchor="end">1.0</text></g>
<g><line x1="70.00" y1="60" x2="70.00" y2="550" stroke="#f0ece3" stroke-width="1" /><text x="70.00" y="600" font-size="12" text-anchor="middle">0</text></g>
<g><line x1="287.50" y1="60" x2="287.50" y2="550" stroke="#f0ece3" stroke-width="1" /><text x="287.50" y="600" font-size="12" text-anchor="middle">25</text></g>
<g><line x1="505.00" y1="60" x2="505.00" y2="550" stroke="#f0ece3" stroke-width="1" /><text x="505.00" y="600" font-size="12" text-anchor="middle">50</text></g>
<g><line x1="722.50" y1="60" x2="722.50" y2="550" stroke="#f0ece3" stroke-width="1" /><text x="722.50" y="600" font-size="12" text-anchor="middle">75</text></g>
<g><line x1="940.00" y1="60" x2="940.00" y2="550" stroke="#f0ece3" stroke-width="1" /><text x="940.00" y="600" font-size="12" text-anchor="middle">100</text></g>
<line x1="70" y1="60" x2="70" y2="550" stroke="#444" stroke-width="1.5" />
<line x1="70" y1="550" x2="940" y2="550" stroke="#444" stroke-width="1.5" />
<circle cx="70.00" cy="547.55" r="3.2" fill="#1f77b4" fill-opacity="0.75" />
<circle cx="78.70" cy="547.26" r="3.2" fill="#1f77b4" fill-opacity="0.75" />
<circle cx="87.40" cy="546.96" r="3.2" fill="#1f77b4" fill-opacity="0.75" />
<circle cx="96.10" cy="546.47" r="3.2" fill="#1f77b4" fill-opacity="0.75" />
<circle cx="104.80" cy="546.18" r="3.2" fill="#1f77b4" fill-opacity="0.75" />
<circle cx="113.50" cy="545.79" r="3.2" fill="#1f77b4" fill-opacity="0.75" />
<circle cx="122.20" cy="545.39" r="3.2" fill="#1f77b4" fill-opacity="0.75" />
<circle cx="130.90" cy="545.10" r="3.2" fill="#1f77b4" fill-opacity="0.75" />
<circle cx="139.60" cy="545.00" r="3.2" fill="#1f77b4" fill-opacity="0.75" />
<circle cx="148.30" cy="544.51" r="3.2" fill="#1f77b4" fill-opacity="0.75" />
<circle cx="157.00" cy="543.92" r="3.2" fill="#1f77b4" fill-opacity="0.75" />
<circle cx="165.70" cy="543.34" r="3.2" fill="#1f77b4" fill-opacity="0.75" />
<circle cx="174.40" cy="542.85" r="3.2" fill="#1f77b4" fill-opacity="0.75" />
<circle cx="183.10" cy="542.26" r="3.2" fill="#1f77b4" fill-opacity="0.75" />
<circle cx="191.80" cy="541.96" r="3.2" fill="#1f77b4" fill-opacity="0.75" />
<circle cx="200.50" cy="541.57" r="3.2" fill="#1f77b4" fill-opacity="0.75" />
<circle cx="209.20" cy="540.89" r="3.2" fill="#1f77b4" fill-opacity="0.75" />
<circle cx="217.90" cy="540.20" r="3.2" fill="#1f77b4" fill-opacity="0.75" />
<circle cx="226.60" cy="538.83" r="3.2" fill="#1f77b4" fill-opacity="0.75" />
<circle cx="235.30" cy="538.04" r="3.2" fill="#1f77b4" fill-opacity="0.75" />
<circle cx="244.00" cy="537.46" r="3.2" fill="#1f77b4" fill-opacity="0.75" />
<circle cx="252.70" cy="536.57" r="3.2" fill="#1f77b4" fill-opacity="0.75" />
<circle cx="261.40" cy="535.40" r="3.2" fill="#1f77b4" fill-opacity="0.75" />
<circle cx="270.10" cy="534.61" r="3.2" fill="#1f77b4" fill-opacity="0.75" />
<circle cx="278.80" cy="533.93" r="3.2" fill="#1f77b4" fill-opacity="0.75" />
<circle cx="287.50" cy="532.26" r="3.2" fill="#1f77b4" fill-opacity="0.75" />
<circle cx="296.20" cy="530.89" r="3.2" fill="#1f77b4" fill-opacity="0.75" />
<circle cx="304.90" cy="529.81" r="3.2" fill="#1f77b4" fill-opacity="0.75" />
<circle cx="313.60" cy="528.73" r="3.2" fill="#1f77b4" fill-opacity="0.75" />
<circle cx="322.30" cy="526.97" r="3.2" fill="#1f77b4" fill-opacity="0.75" />
<circle cx="331.00" cy="526.09" r="3.2" fill="#1f77b4" fill-opacity="0.75" />
<circle cx="339.70" cy="524.72" r="3.2" fill="#1f77b4" fill-opacity="0.75" />
<circle cx="348.40" cy="523.05" r="3.2" fill="#1f77b4" fill-opacity="0.75" />
<circle cx="357.10" cy="521.68" r="3.2" fill="#1f77b4" fill-opacity="0.75" />
<circle cx="365.80" cy="520.21" r="3.2" fill="#1f77b4" fill-opacity="0.75" />
<circle cx="374.50" cy="517.66" r="3.2" fill="#1f77b4" fill-opacity="0.75" />
<circle cx="383.20" cy="515.50" r="3.2" fill="#1f77b4" fill-opacity="0.75" />
<circle cx="391.90" cy="514.33" r="3.2" fill="#1f77b4" fill-opacity="0.75" />
<circle cx="400.60" cy="512.66" r="3.2" fill="#1f77b4" fill-opacity="0.75" />
<circle cx="409.30" cy="510.02" r="3.2" fill="#1f77b4" fill-opacity="0.75" />
<circle cx="418.00" cy="507.27" r="3.2" fill="#1f77b4" fill-opacity="0.75" />
<circle cx="426.70" cy="505.41" r="3.2" fill="#1f77b4" fill-opacity="0.75" />
<circle cx="435.40" cy="503.74" r="3.2" fill="#1f77b4" fill-opacity="0.75" />
<circle cx="444.10" cy="501.39" r="3.2" fill="#1f77b4" fill-opacity="0.75" />
<circle cx="452.80" cy="499.14" r="3.2" fill="#1f77b4" fill-opacity="0.75" />
<circle cx="461.50" cy="496.88" r="3.2" fill="#1f77b4" fill-opacity="0.75" />
<circle cx="470.20" cy="493.85" r="3.2" fill="#1f77b4" fill-opacity="0.75" />
<circle cx="478.90" cy="491.30" r="3.2" fill="#1f77b4" fill-opacity="0.75" />
<circle cx="487.60" cy="486.10" r="3.2" fill="#1f77b4" fill-opacity="0.75" />
<circle cx="496.30" cy="482.77" r="3.2" fill="#1f77b4" fill-opacity="0.75" />
<circle cx="505.00" cy="480.03" r="3.2" fill="#1f77b4" fill-opacity="0.75" />
<circle cx="513.70" cy="477.09" r="3.2" fill="#1f77b4" fill-opacity="0.75" />
<circle cx="522.40" cy="472.09" r="3.2" fill="#1f77b4" fill-opacity="0.75" />
<circle cx="531.10" cy="467.39" r="3.2" fill="#1f77b4" fill-opacity="0.75" />
<circle cx="539.80" cy="464.94" r="3.2" fill="#1f77b4" fill-opacity="0.75" />
<circle cx="548.50" cy="460.33" r="3.2" fill="#1f77b4" fill-opacity="0.75" />
<circle cx="557.20" cy="457.00" r="3.2" fill="#1f77b4" fill-opacity="0.75" />
<circle cx="565.90" cy="452.78" r="3.2" fill="#1f77b4" fill-opacity="0.75" />
<circle cx="574.60" cy="448.67" r="3.2" fill="#1f77b4" fill-opacity="0.75" />
<circle cx="583.30" cy="444.26" r="3.2" fill="#1f77b4" fill-opacity="0.75" />
<circle cx="592.00" cy="437.79" r="3.2" fill="#1f77b4" fill-opacity="0.75" />
<circle cx="600.70" cy="433.67" r="3.2" fill="#1f77b4" fill-opacity="0.75" />
<circle cx="609.40" cy="428.68" r="3.2" fill="#1f77b4" fill-opacity="0.75" />
<circle cx="618.10" cy="423.48" r="3.2" fill="#1f77b4" fill-opacity="0.75" />
<circle cx="626.80" cy="418.39" r="3.2" fill="#1f77b4" fill-opacity="0.75" />
<circle cx="635.50" cy="414.17" r="3.2" fill="#1f77b4" fill-opacity="0.75" />
<circle cx="644.20" cy="409.66" r="3.2" fill="#1f77b4" fill-opacity="0.75" />
<circle cx="652.90" cy="404.47" r="3.2" fill="#1f77b4" fill-opacity="0.75" />
<circle cx="661.60" cy="400.06" r="3.2" fill="#1f77b4" fill-opacity="0.75" />
<circle cx="670.30" cy="395.06" r="3.2" fill="#1f77b4" fill-opacity="0.75" />
<circle cx="679.00" cy="389.97" r="3.2" fill="#1f77b4" fill-opacity="0.75" />
<circle cx="687.70" cy="384.77" r="3.2" fill="#1f77b4" fill-opacity="0.75" />
<circle cx="696.40" cy="380.17" r="3.2" fill="#1f77b4" fill-opacity="0.75" />
<circle cx="705.10" cy="374.09" r="3.2" fill="#1f77b4" fill-opacity="0.75" />
<circle cx="713.80" cy="367.62" r="3.2" fill="#1f77b4" fill-opacity="0.75" />
<circle cx="722.50" cy="362.82" r="3.2" fill="#1f77b4" fill-opacity="0.75" />
<circle cx="731.20" cy="357.33" r="3.2" fill="#1f77b4" fill-opacity="0.75" />
<circle cx="739.90" cy="351.06" r="3.2" fill="#1f77b4" fill-opacity="0.75" />
<circle cx="748.60" cy="344.98" r="3.2" fill="#1f77b4" fill-opacity="0.75" />
<circle cx="757.30" cy="339.79" r="3.2" fill="#1f77b4" fill-opacity="0.75" />
<circle cx="766.00" cy="334.11" r="3.2" fill="#1f77b4" fill-opacity="0.75" />
<circle cx="774.70" cy="327.93" r="3.2" fill="#1f77b4" fill-opacity="0.75" />
<circle cx="783.40" cy="322.74" r="3.2" fill="#1f77b4" fill-opacity="0.75" />
<circle cx="792.10" cy="316.17" r="3.2" fill="#1f77b4" fill-opacity="0.75" />
<circle cx="800.80" cy="310.78" r="3.2" fill="#1f77b4" fill-opacity="0.75" />
<circle cx="809.50" cy="305.00" r="3.2" fill="#1f77b4" fill-opacity="0.75" />
<circle cx="818.20" cy="298.34" r="3.2" fill="#1f77b4" fill-opacity="0.75" />
<circle cx="826.90" cy="292.65" r="3.2" fill="#1f77b4" fill-opacity="0.75" />
<circle cx="835.60" cy="286.09" r="3.2" fill="#1f77b4" fill-opacity="0.75" />
<circle cx="844.30" cy="279.91" r="3.2" fill="#1f77b4" fill-opacity="0.75" />
<circle cx="853.00" cy="274.33" r="3.2" fill="#1f77b4" fill-opacity="0.75" />
<circle cx="861.70" cy="268.35" r="3.2" fill="#1f77b4" fill-opacity="0.75" />
<circle cx="870.40" cy="262.57" r="3.2" fill="#1f77b4" fill-opacity="0.75" />
<circle cx="879.10" cy="257.27" r="3.2" fill="#1f77b4" fill-opacity="0.75" />
<circle cx="887.80" cy="251.59" r="3.2" fill="#1f77b4" fill-opacity="0.75" />
<circle cx="896.50" cy="245.71" r="3.2" fill="#1f77b4" fill-opacity="0.75" />
<circle cx="905.20" cy="240.42" r="3.2" fill="#1f77b4" fill-opacity="0.75" />
<circle cx="913.90" cy="235.81" r="3.2" fill="#1f77b4" fill-opacity="0.75" />
<circle cx="922.60" cy="228.95" r="3.2" fill="#1f77b4" fill-opacity="0.75" />
<circle cx="931.30" cy="222.78" r="3.2" fill="#1f77b4" fill-opacity="0.75" />
<circle cx="940.00" cy="60.00" r="3.2" fill="#1f77b4" fill-opacity="0.75" />
<polyline fill="none" stroke="#d62728" stroke-width="3" points="70.00,535.70 78.70,536.75 87.40,537.73 96.10,538.66 104.80,539.52 113.50,540.30 122.20,541.02 130.90,541.67 139.60,542.23 148.30,542.72 157.00,543.12 165.70,543.44 174.40,543.68 183.10,543.82 191.80,543.88 200.50,543.84 209.20,543.70 217.90,543.47 226.60,543.14 235.30,542.71 244.00,542.18 252.70,541.55 261.40,540.81 270.10,539.97 278.80,539.03 287.50,537.97 296.20,536.82 304.90,535.55 313.60,534.18 322.30,532.70 331.00,531.11 339.70,529.42 348.40,527.61 357.10,525.70 365.80,523.68 374.50,521.56 383.20,519.32 391.90,516.99 400.60,514.54 409.30,512.00 418.00,509.34 426.70,506.59 435.40,503.73 444.10,500.78 452.80,497.72 461.50,494.56 470.20,491.31 478.90,487.96 487.60,484.52 496.30,480.98 505.00,477.35 513.70,473.63 522.40,469.83 531.10,465.93 539.80,461.95 548.50,457.89 557.20,453.74 565.90,449.51 574.60,445.21 583.30,440.83 592.00,436.37 600.70,431.84 609.40,427.23 618.10,422.56 626.80,417.82 635.50,413.01 644.20,408.14 652.90,403.20 661.60,398.21 670.30,393.15 679.00,388.04 687.70,382.87 696.40,377.65 705.10,372.38 713.80,367.06 722.50,361.69 731.20,356.27 739.90,350.81 748.60,345.30 757.30,339.76 766.00,334.17 774.70,328.55 783.40,322.89 792.10,317.19 800.80,311.46 809.50,305.70 818.20,299.92 826.90,294.10 835.60,288.25 844.30,282.39 853.00,276.49 861.70,270.58 870.40,264.64 879.10,258.69 887.80,252.71 896.50,246.72 905.20,240.72 913.90,234.70 922.60,228.67 931.30,222.62 940.00,216.57" />
<rect x="700" y="72" width="230" height="130" fill="#ffffff" stroke="#d9d3c7" rx="10" />
<text x="725" y="96" font-size="15" font-weight="bold" fill="#1d1d1d">Data Schema</text>
<text x="725" y="130" font-size="13" fill="#1d1d1d">mean: 78.2828</text>
<text x="725" y="148" font-size="13" fill="#1d1d1d">variance: 568.5448</text>
<text x="725" y="166" font-size="13" fill="#1d1d1d">min: 0</text>
<text x="725" y="184" font-size="13" fill="#1d1d1d">max: 100</text>
<text x="725" y="202" font-size="13" fill="#1d1d1d">size: 5000</text>
<rect x="700" y="220" width="230" height="76" fill="#ffffff" stroke="#d9d3c7" rx="10" />
<circle cx="732" cy="246" r="4" fill="#1f77b4" fill-opacity="0.75" />
<text x="750" y="250" font-size="13" fill="#1d1d1d">Actual empirical CDF scatter</text>
<line x1="728" y1="272" x2="768" y2="272" stroke="#d62728" stroke-width="3" />
<text x="778" y="276" font-size="13" fill="#1d1d1d">ML approximation line</text>
<text x="505.0" y="590" font-size="14" text-anchor="middle" fill="#1d1d1d">x value</text>
<text x="24" y="305.0" font-size="14" text-anchor="middle" fill="#1d1d1d" transform="rotate(-90 24 305.0)">CDF</text>
</svg>
