<svg xmlns="http://www.w3.org/2000/svg" width="980" height="620" viewBox="0 0 980 620">
<rect width="100%" height="100%" fill="#fffaf0" />
<text x="490.0" y="28" font-size="22" text-anchor="middle" fill="#1d1d1d">Empirical CDF Scatter vs ML Approximation Line</text>
<text x="490.0" y="48" font-size="13" text-anchor="middle" fill="#5f584d">Scatter points show actual empirical CDF, red line shows ML approximation</text>
<g><line x1="70" y1="550.00" x2="940" y2="550.00" stroke="#e6e1d7" stroke-width="1" /><text x="60" y="555.00" font-size="12" text-anchor="end">0.0</text></g>
<g><line x1="70" y1="427.50" x2="940" y2="427.50" stroke="#e6e1d7" stroke-width="1" /><text x="60" y="432.50" font-size="12" text-anchor="end">0.2</text></g>
<g><line x1="70" y1="305.00" x2="940" y2="305.00" stroke="#e6e1d7" stroke-width="1" /><text x="60" y="310.00" font-size="12" text-anchor="end">0.5</text></g>
<g><line x1="70" y1="182.50" x2="940" y2="182.50" stroke="#e6e1d7" stroke-width="1" /><text x="60" y="187.50" font-size="12" text-anchor="end">0.8</text></g>
<g><line x1="70" y1="60.00" x2="940" y2="60.00" stroke="#e6e1d7" stroke-width="1" /><text x="60" y="65.00" font-size="12" text-anchor="end">1.0</text></g>
<g><line x1="70.00" y1="60" x2="70.00" y2="550" stroke="#f0ece3" stroke-width="1" /><text x="70.00" y="600" font-size="12" text-anchor="middle">0</text></g>
<g><line x1="287.50" y1="60" x2="287.50" y2="550" stroke="#f0ece3" stroke-width="1" /><text x="287.50" y="600" font-size="12" text-anchor="middle">25</text></g>
<g><line x1="505.00" y1="60" x2="505.00" y2="550" stroke="#f0ece3" stroke-width="1" /><text x="505.00" y="600" font-size="12" text-anchor="middle">50</text></g>
<g><line x1="722.50" y1="60" x2="722.50" y2="550" stroke="#f0ece3" stroke-width="1" /><text x="722.50" y="600" font-size="12" text-anchor="middle">75</text></g>
<g><line x1="940.00" y1="60" x2="940.00" y2="550" stroke="#f0ece3" stroke-width="1" /><text x="940.00" y="600" font-size="12" text-anchor="middle">100</text></g>
<line x1="70" y1="60" x2="70" y2="550" stroke="#444" stroke-width="1.5" />
<line x1="70" y1="550" x2="940" y2="550" stroke="#444" stroke-width="1.5" />
<circle cx="70.00" cy="524.91" r="3.2" fill="#1f77b4" fill-opacity="0.75" />
<circle cx="78.70" cy="519.33" r="3.2" fill="#1f77b4" fill-opacity="0.75" />
<circle cx="87.40" cy="515.01" r="3.2" fill="#1f77b4" fill-opacity="0.75" />
<circle cx="96.10" cy="509.43" r="3.2" fill="#1f77b4" fill-opacity="0.75" />
<circle cx="104.80" cy="502.67" r="3.2" fill="#1f77b4" fill-opacity="0.75" />
<circle cx="113.50" cy="495.81" r="3.2" fill="#1f77b4" fill-opacity="0.75" />
<circle cx="122.20" cy="489.14" r="3.2" fill="#1f77b4" fill-opacity="0.75" />
<circle cx="130.90" cy="481.60" r="3.2" fill="#1f77b4" fill-opacity="0.75" />
<circle cx="139.60" cy="474.44" r="3.2" fill="#1f77b4" fill-opacity="0.75" />
<circle cx="148.30" cy="468.95" r="3.2" fill="#1f77b4" fill-opacity="0.75" />
<circle cx="157.00" cy="461.31" r="3.2" fill="#1f77b4" fill-opacity="0.75" />
<circle cx="165.70" cy="453.96" r="3.2" fill="#1f77b4" fill-opacity="0.75" />
<circle cx="174.40" cy="446.71" r="3.2" fill="#1f77b4" fill-opacity="0.75" />
<circle cx="183.10" cy="439.95" r="3.2" fill="#1f77b4" fill-opacity="0.75" />
<circle cx="191.80" cy="432.89" r="3.2" fill="#1f77b4" fill-opacity="0.75" />
<circle cx="200.50" cy="425.74" r="3.2" fill="#1f77b4" fill-opacity="0.75" />
<circle cx="209.20" cy="419.17" r="3.2" fill="#1f77b4" fill-opacity="0.75" />
<circle cx="217.90" cy="413.00" r="3.2" fill="#1f77b4" fill-opacity="0.75" />
<circle cx="226.60" cy="408.19" r="3.2" fill="#1f77b4" fill-opacity="0.75" />
<circle cx="235.30" cy="402.41" r="3.2" fill="#1f77b4" fill-opacity="0.75" />
<circle cx="244.00" cy="397.61" r="3.2" fill="#1f77b4" fill-opacity="0.75" />
<circle cx="252.70" cy="391.63" r="3.2" fill="#1f77b4" fill-opacity="0.75" />
<circle cx="261.40" cy="386.05" r="3.2" fill="#1f77b4" fill-opacity="0.75" />
<circle cx="270.10" cy="379.58" r="3.2" fill="#1f77b4" fill-opacity="0.75" />
<circle cx="278.80" cy="375.36" r="3.2" fill="#1f77b4" fill-opacity="0.75" />
<circle cx="287.50" cy="371.15" r="3.2" fill="#1f77b4" fill-opacity="0.75" />
<circle cx="296.20" cy="365.66" r="3.2" fill="#1f77b4" fill-opacity="0.75" />
<circle cx="304.90" cy="360.47" r="3.2" fill="#1f77b4" fill-opacity="0.75" />
<circle cx="313.60" cy="355.27" r="3.2" fill="#1f77b4" fill-opacity="0.75" />
<circle cx="322.30" cy="349.59" r="3.2" fill="#1f77b4" fill-opacity="0.75" />
<circle cx="331.00" cy="346.26" r="3.2" fill="#1f77b4" fill-opacity="0.75" />
<circle cx="339.70" cy="341.06" r="3.2" fill="#1f77b4" fill-opacity="0.75" />
<circle cx="348.40" cy="337.14" r="3.2" fill="#1f77b4" fill-opacity="0.75" />
<circle cx="357.10" cy="332.24" r="3.2" fill="#1f77b4" fill-opacity="0.75" />
<circle cx="365.80" cy="327.93" r="3.2" fill="#1f77b4" fill-opacity="0.75" />
<circle cx="374.50" cy="324.21" r="3.2" fill="#1f77b4" fill-opacity="0.75" />
<circle cx="383.20" cy="319.99" r="3.2" fill="#1f77b4" fill-opacity="0.75" />
<circle cx="391.90" cy="315.49" r="3.2" fill="#1f77b4" fill-opacity="0.75" />
<circle cx="400.60" cy="310.49" r="3.2" fill="#1f77b4" fill-opacity="0.75" />
<circle cx="409.30" cy="305.49" r="3.2" fill="#1f77b4" fill-opacity="0.75" />
<circle cx="418.00" cy="301.67" r="3.2" fill="#1f77b4" fill-opacity="0.75" />
<circle cx="426.70" cy="297.55" r="3.2" fill="#1f77b4" fill-opacity="0.75" />
<circle cx="435.40" cy="293.44" r="3.2" fill="#1f77b4" fill-opacity="0.75" />
<circle cx="444.10" cy="289.32" r="3.2" fill="#1f77b4" fill-opacity="0.75" />
<circle cx="452.80" cy="285.01" r="3.2" fill="#1f77b4" fill-opacity="0.75" />
<circle cx="461.50" cy="281.38" r="3.2" fill="#1f77b4" fill-opacity="0.75" />
<circle cx="470.20" cy="278.15" r="3.2" fill="#1f77b4" fill-opacity="0.75" />
<circle cx="478.90" cy="273.64" r="3.2" fill="#1f77b4" fill-opacity="0.75" />
<circle cx="487.60" cy="270.01" r="3.2" fill="#1f77b4" fill-opacity="0.75" />
<circle cx="496.30" cy="266.68" r="3.2" fill="#1f77b4" fill-opacity="0.75" />
<circle cx="505.00" cy="263.25" r="3.2" fill="#1f77b4" fill-opacity="0.75" />
<circle cx="513.70" cy="260.41" r="3.2" fill="#1f77b4" fill-opacity="0.75" />
<circle cx="522.40" cy="257.57" r="3.2" fill="#1f77b4" fill-opacity="0.75" />
<circle cx="531.10" cy="254.04" r="3.2" fill="#1f77b4" fill-opacity="0.75" />
<circle cx="539.80" cy="249.24" r="3.2" fill="#1f77b4" fill-opacity="0.75" />
<circle cx="548.50" cy="246.10" r="3.2" fill="#1f77b4" fill-opacity="0.75" />
<circle cx="557.20" cy="242.18" r="3.2" fill="#1f77b4" fill-opacity="0.75" />
<circle cx="565.90" cy="239.34" r="3.2" fill="#1f77b4" fill-opacity="0.75" />
<circle cx="574.60" cy="235.13" r="3.2" fill="#1f77b4" fill-opacity="0.75" />
<circle cx="583.30" cy="231.70" r="3.2" fill="#1f77b4" fill-opacity="0.75" />
<circle cx="592.00" cy="228.95" r="3.2" fill="#1f77b4" fill-opacity="0.75" />
<circle cx="600.70" cy="224.64" r="3.2" fill="#1f77b4" fill-opacity="0.75" />
<circle cx="609.40" cy="221.11" r="3.2" fill="#1f77b4" fill-opacity="0.75" />
<circle cx="618.10" cy="218.17" r="3.2" fill="#1f77b4" fill-opacity="0.75" />
<circle cx="626.80" cy="214.35" r="3.2" fill="#1f77b4" fill-opacity="0.75" />
<circle cx="635.50" cy="210.43" r="3.2" fill="#1f77b4" fill-opacity="0.75" />
<circle cx="644.20" cy="205.73" r="3.2" fill="#1f77b4" fill-opacity="0.75" />
<circle cx="652.90" cy="201.22" r="3.2" fill="#1f77b4" fill-opacity="0.75" />
<circle cx="661.60" cy="197.89" r="3.2" fill="#1f77b4" fill-opacity="0.75" />
<circle cx="670.30" cy="193.87" r="3.2" fill="#1f77b4" fill-opacity="0.75" />
<circle cx="679.00" cy="189.75" r="3.2" fill="#1f77b4" fill-opacity="0.75" />
<circle cx="687.70" cy="185.05" r="3.2" fill="#1f77b4" fill-opacity="0.75" />
<circle cx="696.40" cy="180.44" r="3.2" fill="#1f77b4" fill-opacity="0.75" />
<circle cx="705.10" cy="173.68" r="3.2" fill="#1f77b4" fill-opacity="0.75" />
<circle cx="713.80" cy="168.09" r="3.2" fill="#1f77b4" fill-opacity="0.75" />
<circle cx="722.50" cy="161.23" r="3.2" fill="#1f77b4" fill-opacity="0.75" />
<circle cx="731.20" cy="155.84" r="3.2" fill="#1f77b4" fill-opacity="0.75" />
<circle cx="739.90" cy="149.47" r="3.2" fill="#1f77b4" fill-opacity="0.75" />
<circle cx="748.60" cy="144.08" r="3.2" fill="#1f77b4" fill-opacity="0.75" />
<circle cx="757.30" cy="137.32" r="3.2" fill="#1f77b4" fill-opacity="0.75" />
<circle cx="766.00" cy="131.25" r="3.2" fill="#1f77b4" fill-opacity="0.75" />
<circle cx="774.70" cy="126.44" r="3.2" fill="#1f77b4" fill-opacity="0.75" />
<circle cx="783.40" cy="121.54" r="3.2" fill="#1f77b4" fill-opacity="0.75" />
<circle cx="792.10" cy="117.33" r="3.2" fill="#1f77b4" fill-opacity="0.75" />
<circle cx="800.80" cy="112.43" r="3.2" fill="#1f77b4" fill-opacity="0.75" />
<circle cx="809.50" cy="108.90" r="3.2" fill="#1f77b4" fill-opacity="0.75" />
<circle cx="818.20" cy="105.28" r="3.2" fill="#1f77b4" fill-opacity="0.75" />
<circle cx="826.90" cy="102.43" r="3.2" fill="#1f77b4" fill-opacity="0.75" />
<circle cx="835.60" cy="98.91" r="3.2" fill="#1f77b4" fill-opacity="0.75" />
<circle cx="844.30" cy="95.08" r="3.2" fill="#1f77b4" fill-opacity="0.75" />
<circle cx="853.00" cy="91.56" r="3.2" fill="#1f77b4" fill-opacity="0.75" />
<circle cx="861.70" cy="88.03" r="3.2" fill="#1f77b4" fill-opacity="0.75" />
<circle cx="870.40" cy="83.91" r="3.2" fill="#1f77b4" fill-opacity="0.75" />
<circle cx="879.10" cy="79.89" r="3.2" fill="#1f77b4" fill-opacity="0.75" />
<circle cx="887.80" cy="76.76" r="3.2" fill="#1f77b4" fill-opacity="0.75" />
<circle cx="896.50" cy="73.43" r="3.2" fill="#1f77b4" fill-opacity="0.75" />
<circle cx="905.20" cy="71.17" r="3.2" fill="#1f77b4" fill-opacity="0.75" />
<circle cx="913.90" cy="67.64" r="3.2" fill="#1f77b4" fill-opacity="0.75" />
<circle cx="922.60" cy="64.61" r="3.2" fill="#1f77b4" fill-opacity="0.75" />
<circle cx="931.30" cy="62.06" r="3.2" fill="#1f77b4" fill-opacity="0.75" />
<circle cx="940.00" cy="60.00" r="3.2" fill="#1f77b4" fill-opacity="0.75" />
<polyline fill="none" stroke="#d62728" stroke-width="3" points="70.00,523.21 78.70,515.96 87.40,508.82 96.10,501.78 104.80,494.86 113.50,488.05 122.20,481.36 130.90,474.77 139.60,468.29 148.30,461.92 157.00,455.65 165.70,449.50 174.40,443.45 183.10,437.50 191.80,431.66 200.50,425.92 209.20,420.28 217.90,414.73 226.60,409.28 235.30,403.92 244.00,398.66 252.70,393.48 261.40,388.39 270.10,383.38 278.80,378.45 287.50,373.60 296.20,368.82 304.90,364.11 313.60,359.47 322.30,354.90 331.00,350.39 339.70,345.93 348.40,341.53 357.10,337.18 365.80,332.88 374.50,328.63 383.20,324.41 391.90,320.23 400.60,316.09 409.30,311.97 418.00,307.88 426.70,303.82 435.40,299.77 444.10,295.74 452.80,291.72 461.50,287.71 470.20,283.70 478.90,279.70 487.60,275.69 496.30,271.69 505.00,267.67 513.70,263.64 522.40,259.60 531.10,255.55 539.80,251.47 548.50,247.38 557.20,243.26 565.90,239.11 574.60,234.94 583.30,230.73 592.00,226.49 600.70,222.22 609.40,217.90 618.10,213.55 626.80,209.16 635.50,204.73 644.20,200.26 652.90,195.74 661.60,191.17 670.30,186.56 679.00,181.90 687.70,177.20 696.40,172.44 705.10,167.63 713.80,162.78 722.50,157.87 731.20,152.91 739.90,147.90 748.60,142.84 757.30,137.73 766.00,132.57 774.70,127.36 783.40,122.09 792.10,116.78 800.80,111.42 809.50,106.00 818.20,100.54 826.90,95.03 835.60,89.47 844.30,83.86 853.00,78.21 861.70,72.51 870.40,66.76 879.10,60.98 887.80,60.00 896.50,60.00 905.20,60.00 913.90,60.00 922.60,60.00 931.30,60.00 940.00,60.00" />
<rect x="700" y="72" width="230" height="130" fill="#ffffff" stroke="#d9d3c7" rx="10" />
<text x="725" y="96" font-size="15" font-weight="bold" fill="#1d1d1d">Data Schema</text>
<text x="725" y="130" font-size="13" fill="#1d1d1d">mean: 43.3328</text>
<text x="725" y="148" font-size="13" fill="#1d1d1d">variance: 919.0044</text>
<text x="725" y="166" font-size="13" fill="#1d1d1d">min: 0</text>
<text x="725" y="184" font-size="13" fill="#1d1d1d">max: 100</text>
<text x="725" y="202" font-size="13" fill="#1d1d1d">size: 5000</text>
<rect x="700" y="220" width="230" height="76" fill="#ffffff" stroke="#d9d3c7" rx="10" />
<circle cx="732" cy="246" r="4" fill="#1f77b4" fill-opacity="0.75" />
<text x="750" y="250" font-size="13" fill="#1d1d1d">Actual empirical CDF scatter</text>
<line x1="728" y1="272" x2="768" y2="272" stroke="#d62728" stroke-width="3" />
<text x="778" y="276" font-size="13" fill="#1d1d1d">ML approximation line</text>
<text x="505.0" y="590" font-size="14" text-anchor="middle" fill="#1d1d1d">x value</text>
<text x="24" y="305.0" font-size="14" text-anchor="middle" fill="#1d1d1d" transform="rotate(-90 24 305.0)">CDF</text>
</svg>
